<?xml version="1.0" encoding="UTF-8" standalone="no"?>
<svg
   xmlns:dc="http://purl.org/dc/elements/1.1/"
   xmlns:cc="http://creativecommons.org/ns#"
   xmlns:rdf="http://www.w3.org/1999/02/22-rdf-syntax-ns#"
   xmlns:svg="http://www.w3.org/2000/svg"
   xmlns="http://www.w3.org/2000/svg"
   xmlns:sodipodi="http://sodipodi.sourceforge.net/DTD/sodipodi-0.dtd"
   xmlns:inkscape="http://www.inkscape.org/namespaces/inkscape"
   width="109.59969mm"
   height="23.499706mm"
   viewBox="0 0 109.59967 23.499706"
   version="1.1"
   id="svg8"
   inkscape:version="1.0 (1.0+r73+1)"
   sodipodi:docname="logo.svg"
   inkscape:export-xdpi="250"
   inkscape:export-ydpi="250">
  <defs
     id="defs2">
    <inkscape:path-effect
       simplifyJustCoalesce="false"
       simplifyindividualpaths="false"
       simplify_just_coalesce="false"
       simplify_individual_paths="false"
       helper_size="0"
       smooth_angles="360"
       threshold="0.0175676"
       steps="1"
       is_visible="true"
       id="path-effect928"
       effect="simplify" />
    <inkscape:path-effect
       simplifyJustCoalesce="false"
       simplifyindividualpaths="false"
       simplify_just_coalesce="false"
       simplify_individual_paths="false"
       helper_size="0"
       smooth_angles="360"
       threshold="0.0175676"
       steps="1"
       is_visible="true"
       id="path-effect924"
       effect="simplify" />
    <inkscape:path-effect
       only_selected="false"
       apply_with_weight="true"
       apply_no_weight="true"
       helper_size="0"
       steps="2"
       weight="33.333333"
       is_visible="true"
       id="path-effect920"
       effect="bspline" />
    <inkscape:path-effect
       simplifyJustCoalesce="false"
       simplifyindividualpaths="false"
       simplify_just_coalesce="false"
       simplify_individual_paths="false"
       helper_size="0"
       smooth_angles="360"
       threshold="0.0175676"
       steps="1"
       is_visible="true"
       id="path-effect918"
       effect="simplify" />
    <inkscape:path-effect
       is_visible="true"
       id="path-effect914"
       effect="spiro" />
    <inkscape:path-effect
       simplifyJustCoalesce="false"
       simplifyindividualpaths="false"
       simplify_just_coalesce="false"
       simplify_individual_paths="false"
       helper_size="0"
       smooth_angles="360"
       threshold="0.0175676"
       steps="1"
       is_visible="true"
       id="path-effect912"
       effect="simplify" />
    <inkscape:path-effect
       is_visible="true"
       id="path-effect908"
       effect="spiro" />
    <inkscape:path-effect
       simplifyJustCoalesce="false"
       simplifyindividualpaths="false"
       simplify_just_coalesce="false"
       simplify_individual_paths="false"
       helper_size="0"
       smooth_angles="360"
       threshold="0.0175676"
       steps="1"
       is_visible="true"
       id="path-effect906"
       effect="simplify" />
    <inkscape:path-effect
       is_visible="true"
       id="path-effect902"
       effect="spiro" />
    <inkscape:path-effect
       simplifyJustCoalesce="false"
       simplifyindividualpaths="false"
       simplify_just_coalesce="false"
       simplify_individual_paths="false"
       helper_size="0"
       smooth_angles="360"
       threshold="0.0175676"
       steps="1"
       is_visible="true"
       id="path-effect900"
       effect="simplify" />
    <inkscape:path-effect
       simplifyJustCoalesce="false"
       simplifyindividualpaths="false"
       simplify_just_coalesce="false"
       simplify_individual_paths="false"
       helper_size="0"
       smooth_angles="360"
       threshold="0.0175676"
       steps="1"
       is_visible="true"
       id="path-effect896"
       effect="simplify" />
    <inkscape:path-effect
       simplifyJustCoalesce="false"
       simplifyindividualpaths="false"
       simplify_just_coalesce="false"
       simplify_individual_paths="false"
       helper_size="0"
       smooth_angles="360"
       threshold="0.000408163"
       steps="1"
       is_visible="true"
       id="path-effect892"
       effect="simplify" />
    <inkscape:path-effect
       simplifyJustCoalesce="false"
       simplifyindividualpaths="false"
       simplify_just_coalesce="false"
       simplify_individual_paths="false"
       helper_size="0"
       smooth_angles="360"
       threshold="0.000408163"
       steps="1"
       is_visible="true"
       id="path-effect851"
       effect="simplify" />
    <inkscape:path-effect
       simplifyJustCoalesce="false"
       simplifyindividualpaths="false"
       simplify_just_coalesce="false"
       simplify_individual_paths="false"
       helper_size="0"
       smooth_angles="360"
       threshold="0.000408163"
       steps="1"
       is_visible="true"
       id="path-effect847"
       effect="simplify" />
    <inkscape:path-effect
       simplifyJustCoalesce="false"
       simplifyindividualpaths="false"
       simplify_just_coalesce="false"
       simplify_individual_paths="false"
       helper_size="0"
       smooth_angles="360"
       threshold="0.000408163"
       steps="1"
       is_visible="true"
       id="path-effect843"
       effect="simplify" />
    <inkscape:path-effect
       simplifyJustCoalesce="false"
       simplifyindividualpaths="false"
       simplify_just_coalesce="false"
       simplify_individual_paths="false"
       helper_size="0"
       smooth_angles="360"
       threshold="0.000408163"
       steps="1"
       is_visible="true"
       id="path-effect839"
       effect="simplify" />
    <inkscape:path-effect
       simplifyJustCoalesce="false"
       simplifyindividualpaths="false"
       simplify_just_coalesce="false"
       simplify_individual_paths="false"
       helper_size="0"
       smooth_angles="360"
       threshold="0.000408163"
       steps="1"
       is_visible="true"
       id="path-effect835"
       effect="simplify" />
    <inkscape:path-effect
       simplifyJustCoalesce="false"
       simplifyindividualpaths="false"
       simplify_just_coalesce="false"
       simplify_individual_paths="false"
       helper_size="0"
       smooth_angles="360"
       threshold="0.000408163"
       steps="1"
       is_visible="true"
       id="path-effect831"
       effect="simplify" />
    <inkscape:path-effect
       simplifyJustCoalesce="false"
       simplifyindividualpaths="false"
       simplify_just_coalesce="false"
       simplify_individual_paths="false"
       helper_size="0"
       smooth_angles="360"
       threshold="0.000408163"
       steps="1"
       is_visible="true"
       id="path-effect827"
       effect="simplify" />
    <inkscape:path-effect
       simplifyJustCoalesce="false"
       simplifyindividualpaths="false"
       simplify_just_coalesce="false"
       simplify_individual_paths="false"
       helper_size="0"
       smooth_angles="360"
       threshold="0.000408163"
       steps="1"
       is_visible="true"
       id="path-effect823"
       effect="simplify" />
    <inkscape:path-effect
       simplifyJustCoalesce="false"
       simplifyindividualpaths="false"
       simplify_just_coalesce="false"
       simplify_individual_paths="false"
       helper_size="0"
       smooth_angles="360"
       threshold="0.000408163"
       steps="1"
       is_visible="true"
       id="path-effect819"
       effect="simplify" />
    <clipPath
       id="clipPath5072-1"
       clipPathUnits="userSpaceOnUse">
      <ellipse
         clip-path="none"
         ry="5.7218075"
         rx="5.3549418"
         cy="27.031374"
         cx="58.248215"
         id="ellipse5074-1"
         style="opacity:1;fill:none;fill-opacity:1;stroke:#509fd6;stroke-width:1.20000005;stroke-miterlimit:4;stroke-dasharray:none;stroke-dashoffset:0;stroke-opacity:1" />
    </clipPath>
    <clipPath
       id="clipPath5114-1"
       clipPathUnits="userSpaceOnUse">
      <path
         inkscape:connector-curvature="0"
         id="path5116-8"
         d="m 58.248238,21.309806 a 5.3549418,5.7218075 0 0 0 -5.012614,3.729487 1.994886,1.994886 0 0 0 -1.923397,1.992127 1.994886,1.994886 0 0 0 1.919263,1.991093 5.3549418,5.7218075 0 0 0 5.016748,3.730521 5.3549418,5.7218075 0 0 0 5.354711,-5.721614 5.3549418,5.7218075 0 0 0 -5.354711,-5.721614 z"
         clip-path="none"
         style="opacity:1;fill:none;fill-opacity:1;stroke:#509fd6;stroke-width:0.81854123;stroke-miterlimit:4;stroke-dasharray:none;stroke-dashoffset:0;stroke-opacity:1" />
    </clipPath>
  </defs>
  <sodipodi:namedview
     inkscape:document-rotation="0"
     fit-margin-right="3"
     fit-margin-bottom="3"
     fit-margin-left="3"
     fit-margin-top="3"
     inkscape:window-maximized="1"
     inkscape:window-y="27"
     inkscape:window-x="0"
     inkscape:window-height="1376"
     inkscape:window-width="2560"
     showgrid="false"
     inkscape:current-layer="layer1"
     inkscape:document-units="mm"
     inkscape:cy="42.859287"
     inkscape:cx="178.87232"
     inkscape:zoom="2"
     inkscape:pageshadow="2"
     inkscape:pageopacity="0.0"
     borderopacity="1.0"
     bordercolor="#666666"
     pagecolor="#ffffff"
     id="base" />
  <metadata
     id="metadata5">
    <rdf:RDF>
      <cc:Work
         rdf:about="">
        <dc:format>image/svg+xml</dc:format>
        <dc:type
           rdf:resource="http://purl.org/dc/dcmitype/StillImage" />
        <dc:title></dc:title>
      </cc:Work>
    </rdf:RDF>
  </metadata>
  <g
     transform="translate(-30.686612,-13.043974)"
     inkscape:label="background"
     id="layer2"
     inkscape:groupmode="layer">
    <g
       id="g5183">
      <circle
         transform="translate(0.0160103,0.18384335)"
         r="1.994886"
         cy="27.031374"
         cx="53.307343"
         id="circle5067-0"
         style="opacity:1;fill:none;fill-opacity:1;stroke:#509fd6;stroke-width:1.20000005;stroke-miterlimit:4;stroke-dasharray:none;stroke-dashoffset:0;stroke-opacity:1"
         clip-path="url(#clipPath5072-1)" />
      <path
         style="opacity:1;fill:none;fill-opacity:1;stroke:#509fd6;stroke-width:1.20000005;stroke-miterlimit:4;stroke-dasharray:none;stroke-dashoffset:0;stroke-opacity:1"
         clip-path="none"
         d="m 58.24859,21.500452 a 5.3549417,5.7218074 0 0 0 -5.012613,3.729488 1.994886,1.994886 0 0 0 -1.923397,1.992127 1.994886,1.994886 0 0 0 1.919263,1.991093 5.3549417,5.7218074 0 0 0 5.016747,3.730521 5.3549417,5.7218074 0 0 0 5.015714,-3.729488 1.994886,1.994886 0 0 0 1.91978,-1.992126 1.994886,1.994886 0 0 0 -1.922362,-1.991093 5.3549417,5.7218074 0 0 0 -5.013132,-3.730522 z"
         id="path861-58-8"
         inkscape:connector-curvature="0" />
      <circle
         style="opacity:1;fill:none;fill-opacity:1;stroke:#509fd6;stroke-width:1.20000005;stroke-miterlimit:4;stroke-dasharray:none;stroke-dashoffset:0;stroke-opacity:1"
         id="path861-58-8-7"
         cx="63.189087"
         cy="27.031374"
         r="1.994886"
         transform="translate(3.5264276e-4,0.19069298)"
         clip-path="url(#clipPath5114-1)" />
    </g>
  </g>
  <g
     transform="translate(-30.686612,-13.043974)"
     id="layer1"
     inkscape:groupmode="layer"
     inkscape:label="Layer 1">
    <g
       style="font-style:normal;font-weight:normal;font-size:40px;line-height:1.25;font-family:sans-serif;letter-spacing:0px;word-spacing:0px;fill:#000000;fill-opacity:1;stroke:none"
       id="flowRoot934"
       transform="matrix(0.26458333,0,0,0.26458333,81.228238,19.74349)"
       aria-label="mPW">
      <path
         id="path142"
         style="font-style:normal;font-variant:normal;font-weight:normal;font-stretch:normal;font-size:96px;font-family:Manjari;-inkscape-font-specification:Manjari;fill:#509fd6;fill-opacity:1"
         d="m -18.255859,12.970703 c -2.296875,-5.3906249 -7.21875,-10.1718749 -14.765625,-10.1718749 -6.046875,0 -11.578125,4.96875 -13.921875,8.9531249 l -0.234375,-5.5312499 c 0.04687,-1.96875 -1.3125,-3.421875 -3.28125,-3.421875 -1.96875,0 -3.421875,1.453125 -3.515625,3.375 l 0.04687,42.1874999 c 0,1.96875 1.546875,3.5625 3.515625,3.5625 1.921875,0 3.515625,-1.59375 3.515625,-3.515625 l 0.04687,-23.859375 c 0,-8.53125 5.015625,-14.6249999 13.96875,-14.6249999 7.6875,0 9.421875,6.7968749 9.421875,14.6249999 l 0.04687,23.71875 c 0,1.96875 1.546875,3.5625 3.515625,3.5625 1.921875,0 3.515625,-1.59375 3.515625,-3.515625 l 0.09375,-23.765625 c 0.04687,-7.5 4.265625,-14.6249999 14.1562496,-14.6249999 7.546875,0 9.1875,6.9374999 9.1875,14.6249999 l 0.046875,23.578125 c 0,1.96875 1.546875,3.5625 3.5156254,3.5625 1.921875,0 3.515625,-1.59375 3.515625,-3.515625 l -0.04687,-23.625 C 14.041016,12.080078 9.8222656,2.7988281 -2.0371094,2.7988281 c -7.9687496,0 -13.1718746,5.203125 -16.2187496,10.1718749 z" />
      <path
         id="path144"
         style="font-style:normal;font-variant:normal;font-weight:normal;font-stretch:normal;font-size:96px;font-family:Manjari;-inkscape-font-specification:Manjari;fill:#509fd6;fill-opacity:1"
         d="m 28.994141,51.689453 c 1.921875,0 3.515625,-1.59375 3.515625,-3.515625 v -0.04687 l -0.04687,-20.34375 9.140625,-0.1875 c 15.09375,-0.421875 25.5,-6.234375 25.5,-21.7499999 0,-13.359375 -10.125,-19.7812501 -23.484375,-19.7812501 l -14.765625,0.09375 c -2.15625,0.04687 -3.46875,2.296875 -3.46875,3.515625 l 0.09375,58.453125 v 0.04687 c 0,1.921875 1.59375,3.515625 3.515625,3.515625 z M 60.072266,5.8925781 c 0,11.2031249 -7.40625,14.4374999 -18.609375,14.6718749 l -9,0.1875 -0.04687,-27.6093749 h 10.875 c 9.984375,0 16.78125,3.5625 16.78125,12.75 z" />
      <path
         id="path146"
         style="font-style:normal;font-variant:normal;font-weight:normal;font-stretch:normal;font-size:96px;font-family:Manjari;-inkscape-font-specification:Manjari;fill:#509fd6;fill-opacity:1"
         d="m 111.82227,-11.544922 -15.421879,48.703125 -15.375,-48.5625 c -0.421875,-1.359375 -1.921875,-2.53125 -3.375,-2.53125 -1.921875,0 -3.515625,1.59375 -3.515625,3.515625 0,0.328125 0.09375,0.8437501 0.1875,1.1250001 l 18.75,59.0156249 c 0.421875,1.359375 1.921875,2.4375 3.328125,2.4375 1.40625,0 2.953125,-1.078125 3.375,-2.4375 L 115.15039,1.0644531 130.57227,49.720703 c 0.42187,1.359375 1.92187,2.4375 3.32812,2.4375 1.40625,0 2.95313,-1.078125 3.375,-2.4375 l 18.75,-58.8749999 c 0.0937,-0.28125 0.1875,-0.796875 0.1875,-1.1250001 0,-1.921875 -1.59375,-3.515625 -3.51562,-3.515625 -1.45313,0 -2.95313,1.125 -3.375,2.484375 l -15.42188,48.46875 -15.375,-48.703125 c -0.42187,-1.359375 -1.96875,-2.4375 -3.375,-2.4375 -1.45312,0 -2.90625,1.125 -3.32812,2.4375 z" />
    </g>
    <g
       style="font-style:normal;font-weight:normal;font-size:96px;line-height:1.25;font-family:sans-serif;letter-spacing:0px;word-spacing:0px;fill:#509fd6;fill-opacity:1;stroke:none"
       id="flowRoot988"
       transform="matrix(0.26458333,0,0,0.26458333,14.539461,-56.884907)"
       aria-label="C">
      <path
         id="path121"
         style="font-style:normal;font-variant:normal;font-weight:normal;font-stretch:normal;font-size:96px;font-family:Manjari;-inkscape-font-specification:Manjari;fill:#509fd6;fill-opacity:1"
         d="m 129.03906,317.82422 c -1.6875,0 -2.85937,0.75 -3.46875,2.15625 -3.51562,7.82812 -11.90625,14.71875 -22.73437,14.71875 -14.578128,0 -23.437503,-11.57813 -23.437503,-26.0625 0,-14.39063 8.953125,-25.82813 23.390623,-25.82813 10.875,0 19.03125,6.1875 22.73438,13.96875 0.60937,1.35938 1.875,2.0625 3.75,2.0625 1.35937,0 2.95312,-1.64062 2.95312,-3.46875 0,-0.60937 -0.14062,-1.125 -0.375,-1.59375 -4.73437,-9.9375 -15.1875,-18 -29.0625,-18 -18.281248,0 -30.421873,14.53125 -30.421873,32.71875 0,18.46875 11.90625,33.28125 30.562503,33.28125 14.15625,0 24.51562,-8.76562 29.0625,-18.9375 0.23437,-0.46875 0.32812,-1.07812 0.32812,-1.82812 0,-1.5 -1.73437,-3.1875 -3.28125,-3.1875 z" />
    </g>
    <g
       transform="translate(-0.13229166,0.11229615)"
       id="g5178">
      <path
         style="fill:none;stroke:#509fd6;stroke-width:1.20000005;stroke-linecap:butt;stroke-linejoin:miter;stroke-miterlimit:4;stroke-dasharray:none;stroke-opacity:1"
         d="m 128.45511,19.852976 -4.15991,9.571646"
         id="path996"
         inkscape:connector-curvature="0" />
      <path
         style="fill:none;stroke:#509fd6;stroke-width:1.20000005;stroke-linecap:butt;stroke-linejoin:miter;stroke-miterlimit:4;stroke-dasharray:none;stroke-opacity:1"
         d="m 125.00951,31.044674 8.43777,0.0482"
         id="path4739"
         inkscape:connector-curvature="0" />
      <path
         style="fill:none;stroke:#509fd6;stroke-width:1.20000005;stroke-linecap:butt;stroke-linejoin:miter;stroke-miterlimit:4;stroke-dasharray:none;stroke-opacity:1"
         d="m 129.9248,19.854988 4.20987,9.686608"
         id="path996-2"
         inkscape:connector-curvature="0" />
      <circle
         style="opacity:1;fill:none;fill-opacity:1;stroke:#509fd6;stroke-width:1.20000005;stroke-miterlimit:4;stroke-dasharray:none;stroke-dashoffset:0;stroke-opacity:1"
         id="path861-58-8-9-3"
         cx="129.22896"
         cy="18.484928"
         r="1.7626117" />
      <circle
         style="opacity:1;fill:none;fill-opacity:1;stroke:#509fd6;stroke-width:1.20000005;stroke-miterlimit:4;stroke-dasharray:none;stroke-dashoffset:0;stroke-opacity:1"
         id="path861-58-8-9-9"
         cx="135.05598"
         cy="31.068773"
         r="1.7626117" />
      <circle
         style="opacity:1;fill:none;fill-opacity:1;stroke:#509fd6;stroke-width:1.20000005;stroke-miterlimit:4;stroke-dasharray:none;stroke-dashoffset:0;stroke-opacity:1"
         id="path861-58-8-9-4"
         cx="123.31929"
         cy="31.068773"
         r="1.7626117" />
    </g>
  </g>
</svg>
