<?xml version="1.0" encoding="UTF-8" standalone="no"?>
<svg
   xmlns:dc="http://purl.org/dc/elements/1.1/"
   xmlns:cc="http://creativecommons.org/ns#"
   xmlns:rdf="http://www.w3.org/1999/02/22-rdf-syntax-ns#"
   xmlns:svg="http://www.w3.org/2000/svg"
   xmlns="http://www.w3.org/2000/svg"
   xmlns:sodipodi="http://sodipodi.sourceforge.net/DTD/sodipodi-0.dtd"
   xmlns:inkscape="http://www.inkscape.org/namespaces/inkscape"
   inkscape:export-ydpi="250"
   inkscape:export-xdpi="250"
   sodipodi:docname="logo-squared.svg"
   inkscape:version="1.0 (4035a4fb49, 2020-05-01)"
   id="svg8"
   version="1.1"
   viewBox="0 0 52.916656 52.916665"
   height="200"
   width="200">
  <defs
     id="defs2">
    <inkscape:path-effect
       lpeversion="0"
       effect="simplify"
       id="path-effect928"
       is_visible="true"
       steps="1"
       threshold="0.0175676"
       smooth_angles="360"
       helper_size="0"
       simplify_individual_paths="false"
       simplify_just_coalesce="false"
       simplifyindividualpaths="false"
       simplifyJustCoalesce="false" />
    <inkscape:path-effect
       lpeversion="0"
       effect="simplify"
       id="path-effect924"
       is_visible="true"
       steps="1"
       threshold="0.0175676"
       smooth_angles="360"
       helper_size="0"
       simplify_individual_paths="false"
       simplify_just_coalesce="false"
       simplifyindividualpaths="false"
       simplifyJustCoalesce="false" />
    <inkscape:path-effect
       lpeversion="0"
       effect="bspline"
       id="path-effect920"
       is_visible="true"
       weight="33.333333"
       steps="2"
       helper_size="0"
       apply_no_weight="true"
       apply_with_weight="true"
       only_selected="false" />
    <inkscape:path-effect
       lpeversion="0"
       effect="simplify"
       id="path-effect918"
       is_visible="true"
       steps="1"
       threshold="0.0175676"
       smooth_angles="360"
       helper_size="0"
       simplify_individual_paths="false"
       simplify_just_coalesce="false"
       simplifyindividualpaths="false"
       simplifyJustCoalesce="false" />
    <inkscape:path-effect
       lpeversion="0"
       effect="spiro"
       id="path-effect914"
       is_visible="true" />
    <inkscape:path-effect
       lpeversion="0"
       effect="simplify"
       id="path-effect912"
       is_visible="true"
       steps="1"
       threshold="0.0175676"
       smooth_angles="360"
       helper_size="0"
       simplify_individual_paths="false"
       simplify_just_coalesce="false"
       simplifyindividualpaths="false"
       simplifyJustCoalesce="false" />
    <inkscape:path-effect
       lpeversion="0"
       effect="spiro"
       id="path-effect908"
       is_visible="true" />
    <inkscape:path-effect
       lpeversion="0"
       effect="simplify"
       id="path-effect906"
       is_visible="true"
       steps="1"
       threshold="0.0175676"
       smooth_angles="360"
       helper_size="0"
       simplify_individual_paths="false"
       simplify_just_coalesce="false"
       simplifyindividualpaths="false"
       simplifyJustCoalesce="false" />
    <inkscape:path-effect
       lpeversion="0"
       effect="spiro"
       id="path-effect902"
       is_visible="true" />
    <inkscape:path-effect
       lpeversion="0"
       effect="simplify"
       id="path-effect900"
       is_visible="true"
       steps="1"
       threshold="0.0175676"
       smooth_angles="360"
       helper_size="0"
       simplify_individual_paths="false"
       simplify_just_coalesce="false"
       simplifyindividualpaths="false"
       simplifyJustCoalesce="false" />
    <inkscape:path-effect
       lpeversion="0"
       effect="simplify"
       id="path-effect896"
       is_visible="true"
       steps="1"
       threshold="0.0175676"
       smooth_angles="360"
       helper_size="0"
       simplify_individual_paths="false"
       simplify_just_coalesce="false"
       simplifyindividualpaths="false"
       simplifyJustCoalesce="false" />
    <inkscape:path-effect
       lpeversion="0"
       effect="simplify"
       id="path-effect892"
       is_visible="true"
       steps="1"
       threshold="0.000408163"
       smooth_angles="360"
       helper_size="0"
       simplify_individual_paths="false"
       simplify_just_coalesce="false"
       simplifyindividualpaths="false"
       simplifyJustCoalesce="false" />
    <inkscape:path-effect
       lpeversion="0"
       effect="simplify"
       id="path-effect851"
       is_visible="true"
       steps="1"
       threshold="0.000408163"
       smooth_angles="360"
       helper_size="0"
       simplify_individual_paths="false"
       simplify_just_coalesce="false"
       simplifyindividualpaths="false"
       simplifyJustCoalesce="false" />
    <inkscape:path-effect
       lpeversion="0"
       effect="simplify"
       id="path-effect847"
       is_visible="true"
       steps="1"
       threshold="0.000408163"
       smooth_angles="360"
       helper_size="0"
       simplify_individual_paths="false"
       simplify_just_coalesce="false"
       simplifyindividualpaths="false"
       simplifyJustCoalesce="false" />
    <inkscape:path-effect
       lpeversion="0"
       effect="simplify"
       id="path-effect843"
       is_visible="true"
       steps="1"
       threshold="0.000408163"
       smooth_angles="360"
       helper_size="0"
       simplify_individual_paths="false"
       simplify_just_coalesce="false"
       simplifyindividualpaths="false"
       simplifyJustCoalesce="false" />
    <inkscape:path-effect
       lpeversion="0"
       effect="simplify"
       id="path-effect839"
       is_visible="true"
       steps="1"
       threshold="0.000408163"
       smooth_angles="360"
       helper_size="0"
       simplify_individual_paths="false"
       simplify_just_coalesce="false"
       simplifyindividualpaths="false"
       simplifyJustCoalesce="false" />
    <inkscape:path-effect
       lpeversion="0"
       effect="simplify"
       id="path-effect835"
       is_visible="true"
       steps="1"
       threshold="0.000408163"
       smooth_angles="360"
       helper_size="0"
       simplify_individual_paths="false"
       simplify_just_coalesce="false"
       simplifyindividualpaths="false"
       simplifyJustCoalesce="false" />
    <inkscape:path-effect
       lpeversion="0"
       effect="simplify"
       id="path-effect831"
       is_visible="true"
       steps="1"
       threshold="0.000408163"
       smooth_angles="360"
       helper_size="0"
       simplify_individual_paths="false"
       simplify_just_coalesce="false"
       simplifyindividualpaths="false"
       simplifyJustCoalesce="false" />
    <inkscape:path-effect
       lpeversion="0"
       effect="simplify"
       id="path-effect827"
       is_visible="true"
       steps="1"
       threshold="0.000408163"
       smooth_angles="360"
       helper_size="0"
       simplify_individual_paths="false"
       simplify_just_coalesce="false"
       simplifyindividualpaths="false"
       simplifyJustCoalesce="false" />
    <inkscape:path-effect
       lpeversion="0"
       effect="simplify"
       id="path-effect823"
       is_visible="true"
       steps="1"
       threshold="0.000408163"
       smooth_angles="360"
       helper_size="0"
       simplify_individual_paths="false"
       simplify_just_coalesce="false"
       simplifyindividualpaths="false"
       simplifyJustCoalesce="false" />
    <inkscape:path-effect
       lpeversion="0"
       effect="simplify"
       id="path-effect819"
       is_visible="true"
       steps="1"
       threshold="0.000408163"
       smooth_angles="360"
       helper_size="0"
       simplify_individual_paths="false"
       simplify_just_coalesce="false"
       simplifyindividualpaths="false"
       simplifyJustCoalesce="false" />
    <clipPath
       clipPathUnits="userSpaceOnUse"
       id="clipPath5072-1">
      <ellipse
         style="opacity:1;fill:none;fill-opacity:1;stroke:#509fd6;stroke-width:1.2;stroke-miterlimit:4;stroke-dasharray:none;stroke-dashoffset:0;stroke-opacity:1"
         id="ellipse5074-1"
         cx="58.248215"
         cy="27.031374"
         rx="5.3549418"
         ry="5.7218075"
         clip-path="none" />
    </clipPath>
    <clipPath
       clipPathUnits="userSpaceOnUse"
       id="clipPath5114-1">
      <path
         style="opacity:1;fill:none;fill-opacity:1;stroke:#509fd6;stroke-width:0.818541;stroke-miterlimit:4;stroke-dasharray:none;stroke-dashoffset:0;stroke-opacity:1"
         clip-path="none"
         d="m 58.248238,21.309806 a 5.3549418,5.7218075 0 0 0 -5.012614,3.729487 1.994886,1.994886 0 0 0 -1.923397,1.992127 1.994886,1.994886 0 0 0 1.919263,1.991093 5.3549418,5.7218075 0 0 0 5.016748,3.730521 5.3549418,5.7218075 0 0 0 5.354711,-5.721614 5.3549418,5.7218075 0 0 0 -5.354711,-5.721614 z"
         id="path5116-8"
         inkscape:connector-curvature="0" />
    </clipPath>
  </defs>
  <sodipodi:namedview
     units="px"
     id="base"
     pagecolor="#ffffff"
     bordercolor="#666666"
     borderopacity="1.0"
     inkscape:pageopacity="0.0"
     inkscape:pageshadow="2"
     inkscape:zoom="2.8284271"
     inkscape:cx="92.110368"
     inkscape:cy="128.07637"
     inkscape:document-units="mm"
     inkscape:current-layer="layer1"
     showgrid="false"
     inkscape:window-width="2560"
     inkscape:window-height="1377"
     inkscape:window-x="-8"
     inkscape:window-y="-8"
     inkscape:window-maximized="1"
     fit-margin-top="3"
     fit-margin-left="3"
     fit-margin-bottom="3"
     fit-margin-right="3"
     inkscape:document-rotation="0" />
  <metadata
     id="metadata5">
    <rdf:RDF>
      <cc:Work
         rdf:about="">
        <dc:format>image/svg+xml</dc:format>
        <dc:type
           rdf:resource="http://purl.org/dc/dcmitype/StillImage" />
        <dc:title></dc:title>
      </cc:Work>
    </rdf:RDF>
  </metadata>
  <g
     inkscape:groupmode="layer"
     id="layer2"
     inkscape:label="background"
     transform="translate(-30.686612,-13.043974)" />
  <g
     inkscape:label="Layer 1"
     inkscape:groupmode="layer"
     id="layer1"
     transform="translate(-30.686612,-13.043974)">
    <g
       aria-label="mPW"
       transform="matrix(0.26458333,0,0,0.26458333,81.228238,19.74349)"
       id="flowRoot934"
       style="font-style:normal;font-weight:normal;font-size:40px;line-height:1.25;font-family:sans-serif;letter-spacing:0px;word-spacing:0px;fill:#000000;fill-opacity:1;stroke:none" />
    <g
       transform="matrix(1.0009306,0,0,1.0009306,-2.5021824,3.2978294)"
       id="g62">
      <g
         transform="translate(-1.125e-6)"
         id="g5183">
        <circle
           transform="translate(0.0160103,0.18384335)"
           r="1.994886"
           cy="27.031374"
           cx="53.307343"
           id="circle5067-0"
           style="opacity:1;fill:none;fill-opacity:1;stroke:#509fd6;stroke-width:1.2;stroke-miterlimit:4;stroke-dasharray:none;stroke-dashoffset:0;stroke-opacity:1"
           clip-path="url(#clipPath5072-1)" />
        <path
           style="opacity:1;fill:none;fill-opacity:1;stroke:#509fd6;stroke-width:1.2;stroke-miterlimit:4;stroke-dasharray:none;stroke-dashoffset:0;stroke-opacity:1"
           clip-path="none"
           d="m 58.24859,21.500452 a 5.3549417,5.7218074 0 0 0 -5.012613,3.729488 1.994886,1.994886 0 0 0 -1.923397,1.992127 1.994886,1.994886 0 0 0 1.919263,1.991093 5.3549417,5.7218074 0 0 0 5.016747,3.730521 5.3549417,5.7218074 0 0 0 5.015714,-3.729488 1.994886,1.994886 0 0 0 1.91978,-1.992126 1.994886,1.994886 0 0 0 -1.922362,-1.991093 5.3549417,5.7218074 0 0 0 -5.013132,-3.730522 z"
           id="path861-58-8"
           inkscape:connector-curvature="0" />
        <circle
           style="opacity:1;fill:none;fill-opacity:1;stroke:#509fd6;stroke-width:1.2;stroke-miterlimit:4;stroke-dasharray:none;stroke-dashoffset:0;stroke-opacity:1"
           id="path861-58-8-7"
           cx="63.189087"
           cy="27.031374"
           r="1.994886"
           transform="translate(3.5264276e-4,0.19069298)"
           clip-path="url(#clipPath5114-1)" />
      </g>
      <path
         transform="matrix(0.26458333,0,0,0.26458333,81.228238,19.74349)"
         id="path142"
         style="font-style:normal;font-variant:normal;font-weight:normal;font-stretch:normal;font-size:96px;line-height:1.25;font-family:Manjari;-inkscape-font-specification:Manjari;letter-spacing:0px;word-spacing:0px;fill:#509fd6;fill-opacity:1;stroke:none"
         d="m -18.255859,12.970703 c -2.296875,-5.3906249 -7.21875,-10.1718749 -14.765625,-10.1718749 -6.046875,0 -11.578125,4.96875 -13.921875,8.9531249 l -0.234375,-5.5312499 c 0.04687,-1.96875 -1.3125,-3.421875 -3.28125,-3.421875 -1.96875,0 -3.421875,1.453125 -3.515625,3.375 l 0.04687,42.1874999 c 0,1.96875 1.546875,3.5625 3.515625,3.5625 1.921875,0 3.515625,-1.59375 3.515625,-3.515625 l 0.04687,-23.859375 c 0,-8.53125 5.015625,-14.6249999 13.96875,-14.6249999 7.6875,0 9.421875,6.7968749 9.421875,14.6249999 l 0.04687,23.71875 c 0,1.96875 1.546875,3.5625 3.515625,3.5625 1.921875,0 3.515625,-1.59375 3.515625,-3.515625 l 0.09375,-23.765625 c 0.04687,-7.5 4.265625,-14.6249999 14.1562496,-14.6249999 7.546875,0 9.1875,6.9374999 9.1875,14.6249999 l 0.046875,23.578125 c 0,1.96875 1.546875,3.5625 3.5156254,3.5625 1.921875,0 3.515625,-1.59375 3.515625,-3.515625 l -0.04687,-23.625 C 14.041016,12.080078 9.8222656,2.7988281 -2.0371094,2.7988281 c -7.9687496,0 -13.1718746,5.203125 -16.2187496,10.1718749 z" />
      <g
         style="font-style:normal;font-weight:normal;font-size:96px;line-height:1.25;font-family:sans-serif;letter-spacing:0px;word-spacing:0px;fill:#509fd6;fill-opacity:1;stroke:none"
         id="flowRoot988"
         transform="matrix(0.26458333,0,0,0.26458333,14.539461,-56.884907)"
         aria-label="C">
        <path
           id="path121"
           style="font-style:normal;font-variant:normal;font-weight:normal;font-stretch:normal;font-size:96px;font-family:Manjari;-inkscape-font-specification:Manjari;fill:#509fd6;fill-opacity:1"
           d="m 129.03906,317.82422 c -1.6875,0 -2.85937,0.75 -3.46875,2.15625 -3.51562,7.82812 -11.90625,14.71875 -22.73437,14.71875 -14.578128,0 -23.437503,-11.57813 -23.437503,-26.0625 0,-14.39063 8.953125,-25.82813 23.390623,-25.82813 10.875,0 19.03125,6.1875 22.73438,13.96875 0.60937,1.35938 1.875,2.0625 3.75,2.0625 1.35937,0 2.95312,-1.64062 2.95312,-3.46875 0,-0.60937 -0.14062,-1.125 -0.375,-1.59375 -4.73437,-9.9375 -15.1875,-18 -29.0625,-18 -18.281248,0 -30.421873,14.53125 -30.421873,32.71875 0,18.46875 11.90625,33.28125 30.562503,33.28125 14.15625,0 24.51562,-8.76562 29.0625,-18.9375 0.23437,-0.46875 0.32812,-1.07812 0.32812,-1.82812 0,-1.5 -1.73437,-3.1875 -3.28125,-3.1875 z" />
      </g>
    </g>
    <g
       transform="matrix(1.0027441,0,0,1.0027441,-2.5857389,4.7901792)"
       id="g75">
      <path
         transform="matrix(0.26458333,0,0,0.26458333,81.228238,19.74349)"
         id="path144"
         style="font-style:normal;font-variant:normal;font-weight:normal;font-stretch:normal;font-size:96px;line-height:1.25;font-family:Manjari;-inkscape-font-specification:Manjari;letter-spacing:0px;word-spacing:0px;fill:#509fd6;fill-opacity:1;stroke:none"
         d="m -170.50586,122.18945 c 1.92187,0 3.51562,-1.59375 3.51562,-3.51562 v -0.0469 l -0.0469,-20.343751 9.14063,-0.1875 c 15.09375,-0.421875 25.5,-6.234375 25.5,-21.75 0,-13.359375 -10.125,-19.78125 -23.48438,-19.78125 l -14.76562,0.09375 c -2.15625,0.04687 -3.46875,2.296875 -3.46875,3.515625 l 0.0938,58.453126 v 0.0469 c 0,1.92187 1.59375,3.51562 3.51562,3.51562 z m 31.07812,-45.796871 c 0,11.203125 -7.40625,14.4375 -18.60937,14.671875 l -9,0.1875 -0.0469,-27.609375 h 10.875 c 9.98437,0 16.78125,3.5625 16.78125,12.75 z" />
      <path
         transform="matrix(0.26458333,0,0,0.26458333,81.228238,19.74349)"
         id="path146"
         style="font-style:normal;font-variant:normal;font-weight:normal;font-stretch:normal;font-size:96px;line-height:1.25;font-family:Manjari;-inkscape-font-specification:Manjari;letter-spacing:0px;word-spacing:0px;fill:#509fd6;fill-opacity:1;stroke:none"
         d="m -87.677733,58.955079 -15.421877,48.703121 -15.375,-48.562496 c -0.42188,-1.359375 -1.92188,-2.53125 -3.375,-2.53125 -1.92188,0 -3.51563,1.59375 -3.51563,3.515625 0,0.328125 0.0938,0.84375 0.1875,1.125 l 18.75,59.015621 c 0.42188,1.35938 1.92188,2.4375 3.32813,2.4375 1.40625,0 2.95312,-1.07812 3.374998,-2.4375 l 15.374999,-48.656246 15.42188,48.656246 c 0.42187,1.35938 1.92187,2.4375 3.32812,2.4375 1.40625,0 2.95313,-1.07812 3.375,-2.4375 l 18.75,-58.874996 c 0.0937,-0.28125 0.1875,-0.796875 0.1875,-1.125 0,-1.921875 -1.59375,-3.515625 -3.51562,-3.515625 -1.45313,0 -2.95313,1.125 -3.375,2.484375 l -15.42188,48.468746 -15.375,-48.703121 c -0.42187,-1.359375 -1.96875,-2.4375 -3.375,-2.4375 -1.45312,0 -2.90625,1.125 -3.32812,2.4375 z" />
      <g
         transform="translate(-52.916667,18.765421)"
         id="g5178">
        <path
           style="fill:none;stroke:#509fd6;stroke-width:1.2;stroke-linecap:butt;stroke-linejoin:miter;stroke-miterlimit:4;stroke-dasharray:none;stroke-opacity:1"
           d="m 128.45511,19.852976 -4.15991,9.571646"
           id="path996"
           inkscape:connector-curvature="0" />
        <path
           style="fill:none;stroke:#509fd6;stroke-width:1.2;stroke-linecap:butt;stroke-linejoin:miter;stroke-miterlimit:4;stroke-dasharray:none;stroke-opacity:1"
           d="m 125.00951,31.044674 8.43777,0.0482"
           id="path4739"
           inkscape:connector-curvature="0" />
        <path
           style="fill:none;stroke:#509fd6;stroke-width:1.2;stroke-linecap:butt;stroke-linejoin:miter;stroke-miterlimit:4;stroke-dasharray:none;stroke-opacity:1"
           d="m 129.9248,19.854988 4.20987,9.686608"
           id="path996-2"
           inkscape:connector-curvature="0" />
        <circle
           style="opacity:1;fill:none;fill-opacity:1;stroke:#509fd6;stroke-width:1.2;stroke-miterlimit:4;stroke-dasharray:none;stroke-dashoffset:0;stroke-opacity:1"
           id="path861-58-8-9-3"
           cx="129.22896"
           cy="18.484928"
           r="1.7626117" />
        <circle
           style="opacity:1;fill:none;fill-opacity:1;stroke:#509fd6;stroke-width:1.2;stroke-miterlimit:4;stroke-dasharray:none;stroke-dashoffset:0;stroke-opacity:1"
           id="path861-58-8-9-9"
           cx="135.05598"
           cy="31.068773"
           r="1.7626117" />
        <circle
           style="opacity:1;fill:none;fill-opacity:1;stroke:#509fd6;stroke-width:1.2;stroke-miterlimit:4;stroke-dasharray:none;stroke-dashoffset:0;stroke-opacity:1"
           id="path861-58-8-9-4"
           cx="123.31929"
           cy="31.068773"
           r="1.7626117" />
      </g>
    </g>
  </g>
</svg>
